<?xml version="1.0" encoding="UTF-8" standalone="no"?>
<svg version="1.1" id="carbonopus_logo_black" xml:space="preserve" width="132" height="152" viewBox="0 0 132 152" xmlns="http://www.w3.org/2000/svg"><defs id="defs6" />
<g id="g8" transform="matrix(1.3333333,0,0,-1.3333333,0,152)"><g id="g10" transform="scale(0.1)"><path d="m 735.199,996.949 c -38.789,2.231 -78.719,3.321 -117.539,3.321 -33.25,37.7 -75.39,54.34 -127.5,54.34 -48.789,0 -89.851,-17.73 -123.09,-55.43 C 340.43,966.988 326.02,933.75 311.602,890.512 288.32,813.98 273.91,710.859 273.91,578.91 c 0,-139.73 13.32,-247.308 37.692,-327.148 -38.793,1.09 -76.524,6.636 -105.352,13.316 -19.961,85.391 -29.922,188.512 -29.922,310.473 0,119.758 8.871,220.699 32.152,301.64 15.5,53.239 25.5,79.84 38.821,106.438 C 299.41,1086.76 381.48,1140 492.34,1140 c 114.219,0 192.969,-47.7 242.859,-143.051 z m 144.18,-275 v 21.063 c 0,86.476 -12.188,126.398 -93.168,146.367 -8.871,2.223 -52.109,10 -126.41,12.223 -44.371,1.097 -97.571,2.187 -160.781,2.187 -68.75,0 -126.442,0 -173,-2.187 8.859,26.597 25.5,59.847 46.558,86.488 53.242,1.09 118.672,2.219 198.512,2.219 70.98,-1.129 156.371,-3.36 181.879,-5.539 74.301,-5.551 114.222,-18.872 146.371,-42.149 54.332,-38.832 72.07,-89.851 75.39,-220.672 z M 656.48,238.441 c -8.859,-26.601 -23.281,-60.98 -43.242,-86.492 -39.918,-1.09 -79.84,-2.219 -117.539,-2.219 -46.597,0 -87.609,1.129 -123.121,1.129 -46.558,2.192 -94.258,3.321 -140.816,7.731 C 141.949,167.5 100.898,187.422 65.4297,225.16 13.3203,280.59 0,344.922 0,570 0,826.172 16.6406,892.699 100.898,944.84 133.09,964.801 165.23,975.898 235.078,982.539 220.66,953.711 209.57,921.559 200.699,886.051 103.121,856.129 100.898,777.379 100.898,570 c 0,-187.379 8.872,-247.27 44.372,-282.77 35.468,-35.468 97.582,-44.339 180.75,-47.66 41.05,-2.23 90.929,-3.32 151.91,-3.32 72.109,0 129.769,1.09 178.55,2.191 z M 806.172,578.91 C 806.172,448.051 793.98,337.148 770.699,248.441 761.84,214.059 750.738,183.012 736.328,155.27 684.219,55.4688 606.559,0.0390625 487.93,0.0390625 375.941,0.0390625 298.281,48.832 248.398,145.309 263.91,144.18 351.52,139.77 367.07,139.77 c 33.239,-38.829 74.301,-56.5708 124.18,-56.5708 65.43,0 99.801,24.4218 127.539,58.7888 54.332,67.621 89.801,199.571 89.801,433.563 0,136.398 -12.18,239.527 -34.371,314.961 41.011,-3.364 73.203,-5.551 103.121,-11.102 19.961,-80.969 28.832,-180.781 28.832,-300.5 z M 886.02,434.73 v -46.57 c 0,-83.16 -12.192,-120.89 -103.129,-137.5 -8.871,-35.5 -19.961,-66.558 -33.282,-94.25 18.871,1.09 33.282,1.09 44.371,2.18 75.399,7.781 116.45,26.64 146.372,63.25 32.187,36.558 42.148,79.801 42.148,178.512 v 34.378 z" style="fill:#3d3935;fill-opacity:1;fill-rule:nonzero;stroke:none" id="path12" /></g></g></svg>
