<?xml version="1.0" encoding="UTF-8" standalone="no"?>
<svg version="1.1" id="carbonopus_text_black" xml:space="preserve" width="420" height="49.333332" viewBox="0 0 420 49.333332" xmlns="http://www.w3.org/2000/svg"><defs id="defs6" /><g id="g8" transform="matrix(1.3333333,0,0,-1.3333333,0,49.333333)"><g id="g10" transform="scale(0.1)"><path d="m 0,190.859 c 0,23.2 3.12109,45.59 9.33984,67.11 6.21096,21.519 15.82036,40.621 28.74996,57.261 12.961,16.68 29.3711,29.969 49.211,39.891 19.8472,9.918 43.2502,14.879 70.1602,14.879 28.59,0 53.398,-5.699 74.418,-17.148 21.051,-11.442 39.961,-27.114 56.793,-46.954 L 248.789,270.59 c -14.449,17.808 -29.019,29.762 -43.629,35.82 -14.648,6.051 -30.199,9.102 -46.68,9.102 -17.859,0 -33.32,-3.481 -46.449,-10.352 C 98.9102,298.238 88.0508,289.02 79.4883,277.379 70.8984,265.781 64.6094,252.422 60.5508,237.27 c -4.0313,-15.122 -6.0625,-30.79 -6.0625,-46.918 0,-16.172 2.0312,-31.801 6.0625,-46.954 4.0586,-15.117 10.3476,-28.597 18.9375,-40.347 8.5625,-11.801 19.4219,-21.2112 32.5427,-28.2815 13.129,-7.039 28.59,-10.5898 46.449,-10.5898 16.481,0 32.11,3.2812 46.911,9.8398 14.808,6.5703 29.257,18.75 43.398,36.6015 L 288.672,75.2695 C 272.191,55.4297 253.32,39.6094 232.148,27.8516 210.941,16.0898 186.051,10.1992 157.461,10.1992 c -26.91,0 -50.313,5.1094 -70.1602,15.3906 C 67.4609,35.8594 51.0508,49.3789 38.0898,66.2109 25.1602,83.0117 15.5508,102.27 9.33984,123.98 3.12109,145.699 0,167.969 0,190.859 Z" style="fill:#3d3935;fill-opacity:1;fill-rule:nonzero;stroke:none" id="path12" /><path d="M 516.25,113.629 H 405.23 L 369.41,12.1914 H 308.828 L 435,365.469 h 51.48 L 612.66,12.1914 h -60.59 z m -91.84,54.031 h 72.149 c -3.36,9.719 -6.481,18.469 -9.329,26.211 -2.851,7.731 -5.628,15.391 -8.32,22.969 -2.699,7.57 -5.469,15.39 -8.32,23.469 -2.86,8.089 -6.141,17.5 -9.852,28.242 z" style="fill:#3d3935;fill-opacity:1;fill-rule:nonzero;stroke:none" id="path14" /><path d="M 750.391,155.039 H 687.34 V 12.1914 H 632.809 V 365.469 H 767.07 c 14.45,0 28.008,-2.77 40.629,-8.321 12.61,-5.589 23.711,-13.128 33.281,-22.738 9.61,-9.57 17.18,-20.781 22.731,-33.551 5.551,-12.769 8.32,-26.41 8.32,-40.859 0,-21.211 -5.82,-40.391 -17.422,-57.539 -11.597,-17.152 -26.328,-29.961 -44.14,-38.359 l 79.73,-151.9106 h -61.57 z m -63.051,54.492 h 79.73 c 7.071,0 13.629,1.25 19.692,3.789 6.047,2.5 11.328,6.059 15.898,10.59 4.531,4.531 8.121,9.918 10.82,16.129 2.692,6.25 4.059,12.891 4.059,19.961 0,14.102 -4.879,26.051 -14.648,35.82 -9.77,9.77 -21.68,14.801 -35.821,15.121 h -79.73 z" style="fill:#3d3935;fill-opacity:1;fill-rule:nonzero;stroke:none" id="path16" /><path d="M 910.391,12.1914 V 365.469 h 140.269 c 13.48,0 26.25,-2.617 38.36,-7.848 12.11,-5.199 22.62,-12.351 31.53,-21.449 8.94,-9.063 16.01,-19.652 21.21,-31.762 5.23,-12.14 7.81,-24.922 7.81,-38.359 0,-11.789 -2.27,-23.321 -6.8,-34.571 -4.53,-11.281 -10.5,-21.281 -17.93,-30.031 13.79,-9.418 24.57,-21.527 32.31,-36.328 7.73,-14.812 11.6,-30.941 11.6,-48.441 0,-14.489 -2.77,-28.0902 -8.32,-40.8987 -5.55,-12.7696 -13.13,-23.8711 -22.7,-33.2813 -9.61,-9.4492 -20.78,-16.8398 -33.55,-22.2305 -12.81,-5.3906 -26.41,-8.0781 -40.9,-8.0781 z m 54.488,54.5274 h 98.911 c 7.07,0 13.71,1.4804 19.92,4.5312 6.25,3.0508 11.72,6.9883 16.41,11.8711 4.72,4.8477 8.43,10.5898 11.09,17.1489 2.7,6.57 4.06,13.359 4.06,20.429 0,14.141 -5.04,25.473 -15.15,34.071 -10.08,8.589 -22.19,12.89 -36.33,12.89 h -98.911 z m 0,244.2222 v -88.793 h 86.291 c 12.46,0 22.97,4.301 31.56,12.852 8.56,8.59 12.86,19.102 12.86,31.559 0,12.781 -4.3,23.363 -12.86,31.8 -8.59,8.403 -19.1,12.582 -31.56,12.582 z" style="fill:#3d3935;fill-opacity:1;fill-rule:nonzero;stroke:none" id="path18" /><path d="m 1464.49,190.352 c 0,16.488 -2.26,32.308 -6.83,47.418 -4.54,15.16 -11.41,28.519 -20.67,40.121 -9.26,11.597 -20.78,20.781 -34.57,27.5 -13.79,6.757 -29.96,10.121 -48.44,10.121 -18.2,0 -34.18,-3.364 -47.96,-10.121 -13.79,-6.719 -25.24,-15.782 -34.3,-27.231 -9.1,-11.441 -15.98,-24.719 -20.7,-39.879 -4.73,-15.121 -7.07,-31.133 -7.07,-47.929 0,-16.832 2.34,-32.813 7.07,-47.93 4.72,-15.152 11.6,-28.512 20.7,-40.121 9.06,-11.6408 20.51,-20.8518 34.3,-27.7697 13.78,-6.9102 29.76,-10.3516 47.96,-10.3516 18.48,0 34.65,3.3594 48.44,10.1211 13.79,6.7187 25.31,15.8594 34.57,27.5002 9.26,11.597 16.13,24.961 20.67,40.109 4.57,15.121 6.83,31.289 6.83,48.442 z m 55,0.507 c 0,-23.558 -3.44,-46.25 -10.35,-68.129 -6.87,-21.871 -17.3,-41.1284 -31.29,-57.7691 -13.94,-16.6796 -31.29,-30.039 -51.99,-40.1601 -20.66,-10.0703 -44.65,-15.10939 -71.88,-15.10939 -27.26,0 -51.17,5.03909 -71.68,15.10939 -20.5,10.1211 -37.77,23.4805 -51.71,40.1601 -13.99,16.6407 -24.42,35.8981 -31.29,57.7691 -6.92,21.879 -10.35,44.571 -10.35,68.129 0,23.2 3.43,45.661 10.35,67.34 6.87,21.723 17.3,40.821 31.29,57.313 13.94,16.476 31.21,29.687 51.71,39.609 20.51,9.918 44.42,14.879 71.68,14.879 27.23,0 51.22,-4.961 71.88,-14.879 20.7,-9.922 38.05,-23.133 51.99,-39.609 13.99,-16.492 24.42,-35.59 31.29,-57.313 6.91,-21.679 10.35,-44.14 10.35,-67.34 z" style="fill:#3d3935;fill-opacity:1;fill-rule:nonzero;stroke:none" id="path20" /><path d="M 1782.93,12.1914 1593.16,264.02 V 12.1914 h -53.47 V 365.469 h 42.89 l 191.25,-251.328 v 251.328 h 53.47 V 12.1914 Z" style="fill:#3d3935;fill-opacity:1;fill-rule:nonzero;stroke:none" id="path22" /><path d="m 2266.6,190.352 c 0,19.179 -2.65,37.347 -8.05,54.488 -5.39,17.148 -13.39,32.23 -23.98,45.16 -10.59,12.969 -23.79,23.32 -39.61,31.051 -15.82,7.738 -34.34,11.609 -55.51,11.609 -20.86,0 -39.1,-3.789 -54.76,-11.371 -15.63,-7.539 -28.75,-17.809 -39.38,-30.777 -10.58,-12.934 -18.55,-28.09 -23.94,-45.391 -5.39,-17.351 -8.09,-35.59 -8.09,-54.769 0,-19.18 2.7,-37.422 8.09,-54.762 5.39,-17.309 13.36,-32.539 23.94,-45.6681 10.63,-13.1211 23.75,-23.5508 39.38,-31.293 15.66,-7.7305 33.9,-11.5976 54.76,-11.5976 21.17,0 39.69,3.789 55.51,11.3671 15.82,7.543 29.02,17.8907 39.61,31.0118 10.59,13.1288 18.59,28.3598 23.98,45.6678 5.4,17.344 8.05,35.742 8.05,55.274 z m 37.85,0.507 c 0,-23.558 -3.43,-46.25 -10.35,-68.129 -6.87,-21.871 -17.22,-41.1284 -31.01,-57.7691 -13.79,-16.6796 -31.06,-30.039 -51.72,-40.1601 -20.71,-10.0703 -44.69,-15.10939 -71.92,-15.10939 -27.26,0 -51.05,5.03909 -71.4,15.10939 -20.35,10.1211 -37.43,23.4805 -51.21,40.1601 -13.83,16.6407 -24.14,35.8981 -31.06,57.7691 -6.91,21.879 -10.35,44.571 -10.35,68.129 0,23.551 3.44,46.09 10.35,67.621 6.92,21.52 17.23,40.54 31.06,57.032 13.78,16.476 30.86,29.687 51.21,39.609 20.35,9.918 44.14,14.879 71.4,14.879 27.23,0 51.21,-4.961 71.92,-14.879 20.66,-9.922 37.93,-23.133 51.72,-39.609 13.79,-16.492 24.14,-35.512 31.01,-57.032 6.92,-21.531 10.35,-44.07 10.35,-67.621 z" style="fill:#3d3935;fill-opacity:1;fill-rule:nonzero;stroke:none" id="path24" /><path d="M 2366.02,163.09 V 12.1914 h -37.35 V 365.469 h 131.72 c 13.79,0 26.84,-2.699 39.1,-8.09 12.31,-5.391 22.97,-12.609 32.07,-21.68 9.06,-9.097 16.33,-19.758 21.68,-32.07 5.39,-12.258 8.09,-25.469 8.09,-39.609 0,-14.141 -2.7,-27.34 -8.09,-39.61 -5.35,-12.262 -12.62,-22.961 -21.68,-32.031 -9.1,-9.098 -19.76,-16.25 -32.07,-21.481 -12.26,-5.199 -25.31,-7.808 -39.1,-7.808 z m 0,37.34 h 94.37 c 8.75,0 16.99,1.679 24.73,5.039 7.73,3.402 14.49,7.929 20.19,13.633 5.71,5.738 10.28,12.457 13.64,20.199 3.35,7.73 5.03,15.969 5.03,24.719 0,8.75 -1.68,17 -5.03,24.73 -3.36,7.73 -7.93,14.449 -13.64,20.199 -5.7,5.699 -12.46,10.352 -20.19,13.86 -7.74,3.562 -15.98,5.312 -24.73,5.312 h -94.37 z" style="fill:#3d3935;fill-opacity:1;fill-rule:nonzero;stroke:none" id="path26" /><path d="m 2727.62,8.67188 c -8.09,0 -16.17,0.50781 -24.22,1.52732 -16.49,1.9922 -31.72,6.1289 -45.67,12.3399 -13.98,6.25 -26.09,14.4101 -36.36,24.4922 -10.24,10.0781 -18.4,21.9492 -24.46,35.5898 -6.05,13.5898 -9.41,28.8279 -10.11,45.6599 v 237.188 h 37.34 V 133.828 c 0,-14.449 2.38,-26.988 7.07,-37.6171 4.73,-10.5898 11.21,-19.4101 19.45,-26.4804 8.25,-7.0703 17.89,-12.4297 29.03,-16.1407 11.09,-3.7109 22.85,-6.0507 35.31,-7.0703 1.68,-0.3476 3.2,-0.5 4.53,-0.5 1.37,0 2.85,0 4.53,0 h 8.09 c 1.68,0 3.12,0 4.3,0 1.17,0 2.61,0.1524 4.29,0.5 12.42,1.0196 24.22,3.3594 35.31,7.0703 11.1,3.711 20.86,9.0704 29.26,16.1407 8.44,7.0703 15,15.8906 19.69,26.4804 4.73,10.6291 7.07,23.1681 7.07,37.6171 v 231.641 h 37.34 V 128.281 c -0.66,-16.832 -4.02,-32.0701 -10.07,-45.6599 -6.06,-13.6406 -14.3,-25.5117 -24.73,-35.5898 -10.43,-10.0821 -22.66,-18.2422 -36.6,-24.4922 -13.95,-6.211 -29.18,-10.3477 -45.67,-12.3399 l -18.67,-1.52732 z" style="fill:#3d3935;fill-opacity:1;fill-rule:nonzero;stroke:none" id="path28" /><path d="m 3114.18,290.27 c -10.78,14.14 -22.89,24.218 -36.33,30.281 -13.47,6.051 -29.3,9.058 -47.46,9.058 -23.87,0 -42.46,-4.961 -55.74,-14.879 -13.32,-9.929 -19.96,-22.109 -19.96,-36.57 0,-8.75 2.77,-16.48 8.36,-23.238 5.54,-6.723 12.69,-12.692 21.44,-17.891 8.75,-5.23 18.4,-9.84 28.99,-13.871 10.62,-4.058 20.78,-7.93 30.54,-11.64 9.42,-3 20.28,-7.219 32.54,-12.61 12.31,-5.359 23.91,-12.109 34.85,-20.16 10.93,-8.09 20.07,-17.852 27.5,-29.301 7.38,-11.398 11.09,-24.879 11.09,-40.347 0,-16.1332 -3.12,-30.4731 -9.34,-42.8911 -6.21,-12.4609 -14.88,-22.8125 -25.97,-31.0507 -11.14,-8.25 -24.22,-14.5391 -39.38,-18.9102 -15.15,-4.3711 -31.44,-6.55859 -48.94,-6.55859 -25.24,0 -48.28,4.68749 -69.14,14.13669 -20.86,9.4102 -40.55,24.5313 -59.07,45.3907 l 30.32,25.2304 c 11.75,-16.1289 25.9,-27.9297 42.38,-35.3086 16.48,-7.4218 35.31,-11.0898 56.52,-11.0898 12.42,0 23.79,1.3281 34.07,4.0195 10.23,2.6992 19.06,6.4805 26.48,11.3711 7.38,4.8789 13.2,10.5781 17.42,17.1484 4.18,6.5586 6.29,13.711 6.29,21.4412 0,10.43 -2.85,19.61 -8.55,27.5 -5.75,7.93 -12.97,14.809 -21.72,20.699 -8.75,5.899 -18.67,10.942 -29.77,15.122 -11.09,4.218 -21.87,8.007 -32.3,11.367 -12.46,4.371 -24.81,8.832 -37.11,13.359 -12.27,4.57 -23.36,10.274 -33.28,17.192 -9.93,6.871 -17.93,15.621 -23.99,26.21 -6.05,10.622 -9.06,24.329 -9.06,41.129 0,12.11 2.07,23.75 6.29,34.84 4.22,11.102 10.86,20.942 19.92,29.5 9.1,8.59 20.86,15.43 35.35,20.461 14.46,5.039 31.8,7.539 51.96,7.539 24.21,0 45.93,-3.859 65.11,-11.597 19.18,-7.731 37.35,-21.832 54.49,-42.383 l -32.81,-25.739 z" style="fill:#3d3935;fill-opacity:1;fill-rule:nonzero;stroke:none" id="path30" /></g></g></svg>
